{
	"asset":{
		"generator":"Khronos glTF Blender I/O v4.4.56",
		"version":"2.0"
	},
	"extensionsUsed":[
		"KHR_materials_clearcoat",
		"KHR_materials_specular",
		"KHR_materials_ior"
	],
	"scene":0,
	"scenes":[
		{
			"name":"Scene",
			"nodes":[
				0
			]
		}
	],
	"nodes":[
		{
			"mesh":0,
			"name":"Book_152x229"
		}
	],
	"materials":[
		{
			"doubleSided":true,
			"name":"Front_152x229",
			"pbrMetallicRoughness":{
				"baseColorTexture":{
					"index":0
				},
				"metallicFactor":0,
				"metallicRoughnessTexture":{
					"index":1
				}
			}
		},
		{
			"doubleSided":true,
			"extensions":{
				"KHR_materials_clearcoat":{
					"clearcoatRoughnessFactor":1
				},
				"KHR_materials_specular":{
					"specularFactor":0
				},
				"KHR_materials_ior":{
					"ior":0
				}
			},
			"name":"Pages",
			"pbrMetallicRoughness":{
				"baseColorTexture":{
					"index":2
				},
				"metallicFactor":0,
				"roughnessFactor":0
			}
		},
		{
			"doubleSided":true,
			"name":"Back_152x229",
			"pbrMetallicRoughness":{
				"baseColorTexture":{
					"index":3
				},
				"metallicFactor":0,
				"metallicRoughnessTexture":{
					"index":4
				}
			}
		},
		{
			"doubleSided":true,
			"name":"Side_152x229",
			"pbrMetallicRoughness":{
				"baseColorTexture":{
					"index":5
				},
				"metallicFactor":0,
				"metallicRoughnessTexture":{
					"index":6
				}
			}
		}
	],
	"meshes":[
		{
			"name":"BookMesh.004",
			"primitives":[
				{
					"attributes":{
						"POSITION":0,
						"NORMAL":1,
						"TEXCOORD_0":2
					},
					"indices":3,
					"material":0
				},
				{
					"attributes":{
						"POSITION":4,
						"NORMAL":5,
						"TEXCOORD_0":6
					},
					"indices":7,
					"material":1
				},
				{
					"attributes":{
						"POSITION":8,
						"NORMAL":9,
						"TEXCOORD_0":10
					},
					"indices":11,
					"material":2
				},
				{
					"attributes":{
						"POSITION":12,
						"NORMAL":13,
						"TEXCOORD_0":14
					},
					"indices":15,
					"material":3
				}
			]
		}
	],
	"textures":[
		{
			"sampler":0,
			"source":0
		},
		{
			"sampler":0,
			"source":1
		},
		{
			"sampler":0,
			"source":2
		},
		{
			"sampler":0,
			"source":0
		},
		{
			"sampler":0,
			"source":1
		},
		{
			"sampler":0,
			"source":3
		},
		{
			"sampler":0,
			"source":1
		}
	],
	"images":[
		{
			"mimeType":"image/jpeg",
			"name":"template-front-xl.jpg",
			"uri":"textures/template-front-xl.jpg"
		},
		{
			"mimeType":"image/jpeg",
			"name":"roughness_map.jpg",
			"uri":"textures/roughness_map.jpg"
		},
		{
			"mimeType":"image/jpeg",
			"name":"pages_color_map.jpg",
			"uri":"textures/pages_color_map.jpg"
		},
		{
			"mimeType":"image/jpeg",
			"name":"template-side-xl.jpg",
			"uri":"textures/template-side-xl.jpg"
		}
	],
	"accessors":[
		{
			"bufferView":0,
			"componentType":5126,
			"count":146,
			"max":[
				0.0791921317577362,
				0.011318637989461422,
				0.11666376888751984
			],
			"min":[
				-0.07519067823886871,
				0.009010220877826214,
				-0.11666377633810043
			],
			"type":"VEC3"
		},
		{
			"bufferView":1,
			"componentType":5126,
			"count":146,
			"type":"VEC3"
		},
		{
			"bufferView":2,
			"componentType":5126,
			"count":146,
			"type":"VEC2"
		},
		{
			"bufferView":3,
			"componentType":5123,
			"count":432,
			"type":"SCALAR"
		},
		{
			"bufferView":4,
			"componentType":5126,
			"count":68,
			"max":[
				0.07678525894880295,
				0.009141427464783192,
				0.11454389989376068
			],
			"min":[
				-0.07532453536987305,
				-0.009320108219981194,
				-0.11454389989376068
			],
			"type":"VEC3"
		},
		{
			"bufferView":5,
			"componentType":5126,
			"count":68,
			"type":"VEC3"
		},
		{
			"bufferView":6,
			"componentType":5126,
			"count":68,
			"type":"VEC2"
		},
		{
			"bufferView":7,
			"componentType":5123,
			"count":216,
			"type":"SCALAR"
		},
		{
			"bufferView":8,
			"componentType":5126,
			"count":145,
			"max":[
				0.0791921317577362,
				-0.009189235046505928,
				0.11666376888751984
			],
			"min":[
				-0.07518967986106873,
				-0.011322665959596634,
				-0.11666377633810043
			],
			"type":"VEC3"
		},
		{
			"bufferView":9,
			"componentType":5126,
			"count":145,
			"type":"VEC3"
		},
		{
			"bufferView":10,
			"componentType":5126,
			"count":145,
			"type":"VEC2"
		},
		{
			"bufferView":11,
			"componentType":5123,
			"count":432,
			"type":"SCALAR"
		},
		{
			"bufferView":12,
			"componentType":5126,
			"count":144,
			"max":[
				-0.07328364253044128,
				0.011198072694242,
				0.11666376888751984
			],
			"min":[
				-0.07800280302762985,
				-0.011202624067664146,
				-0.11666377633810043
			],
			"type":"VEC3"
		},
		{
			"bufferView":13,
			"componentType":5126,
			"count":144,
			"type":"VEC3"
		},
		{
			"bufferView":14,
			"componentType":5126,
			"count":144,
			"type":"VEC2"
		},
		{
			"bufferView":15,
			"componentType":5123,
			"count":420,
			"type":"SCALAR"
		}
	],
	"bufferViews":[
		{
			"buffer":0,
			"byteLength":1752,
			"byteOffset":0,
			"target":34962
		},
		{
			"buffer":0,
			"byteLength":1752,
			"byteOffset":1752,
			"target":34962
		},
		{
			"buffer":0,
			"byteLength":1168,
			"byteOffset":3504,
			"target":34962
		},
		{
			"buffer":0,
			"byteLength":864,
			"byteOffset":4672,
			"target":34963
		},
		{
			"buffer":0,
			"byteLength":816,
			"byteOffset":5536,
			"target":34962
		},
		{
			"buffer":0,
			"byteLength":816,
			"byteOffset":6352,
			"target":34962
		},
		{
			"buffer":0,
			"byteLength":544,
			"byteOffset":7168,
			"target":34962
		},
		{
			"buffer":0,
			"byteLength":432,
			"byteOffset":7712,
			"target":34963
		},
		{
			"buffer":0,
			"byteLength":1740,
			"byteOffset":8144,
			"target":34962
		},
		{
			"buffer":0,
			"byteLength":1740,
			"byteOffset":9884,
			"target":34962
		},
		{
			"buffer":0,
			"byteLength":1160,
			"byteOffset":11624,
			"target":34962
		},
		{
			"buffer":0,
			"byteLength":864,
			"byteOffset":12784,
			"target":34963
		},
		{
			"buffer":0,
			"byteLength":1728,
			"byteOffset":13648,
			"target":34962
		},
		{
			"buffer":0,
			"byteLength":1728,
			"byteOffset":15376,
			"target":34962
		},
		{
			"buffer":0,
			"byteLength":1152,
			"byteOffset":17104,
			"target":34962
		},
		{
			"buffer":0,
			"byteLength":840,
			"byteOffset":18256,
			"target":34963
		}
	],
	"samplers":[
		{
			"magFilter":9729,
			"minFilter":9987
		}
	],
	"buffers":[
		{
			"byteLength":19096,
			"uri":"Book_XL.bin"
		}
	]
}
