{
	"asset":{
		"generator":"Khronos glTF Blender I/O v4.4.56",
		"version":"2.0"
	},
	"extensionsUsed":[
		"KHR_materials_clearcoat",
		"KHR_materials_specular",
		"KHR_materials_ior"
	],
	"scene":0,
	"scenes":[
		{
			"name":"Scene",
			"nodes":[
				0
			]
		}
	],
	"nodes":[
		{
			"mesh":0,
			"name":"Book_108x175"
		}
	],
	"materials":[
		{
			"doubleSided":true,
			"name":"Front_108x175",
			"pbrMetallicRoughness":{
				"baseColorTexture":{
					"index":0
				},
				"metallicFactor":0,
				"metallicRoughnessTexture":{
					"index":1
				}
			}
		},
		{
			"doubleSided":true,
			"extensions":{
				"KHR_materials_clearcoat":{
					"clearcoatRoughnessFactor":1
				},
				"KHR_materials_specular":{
					"specularFactor":0
				},
				"KHR_materials_ior":{
					"ior":0
				}
			},
			"name":"Pages",
			"pbrMetallicRoughness":{
				"baseColorTexture":{
					"index":2
				},
				"metallicFactor":0,
				"roughnessFactor":0
			}
		},
		{
			"doubleSided":true,
			"name":"Back_108x175",
			"pbrMetallicRoughness":{
				"baseColorTexture":{
					"index":3
				},
				"metallicFactor":0,
				"metallicRoughnessTexture":{
					"index":4
				}
			}
		},
		{
			"doubleSided":true,
			"name":"Side_108x175",
			"pbrMetallicRoughness":{
				"baseColorTexture":{
					"index":5
				},
				"metallicFactor":0,
				"metallicRoughnessTexture":{
					"index":6
				}
			}
		}
	],
	"meshes":[
		{
			"name":"BookMesh.005",
			"primitives":[
				{
					"attributes":{
						"POSITION":0,
						"NORMAL":1,
						"TEXCOORD_0":2
					},
					"indices":3,
					"material":0
				},
				{
					"attributes":{
						"POSITION":4,
						"NORMAL":5,
						"TEXCOORD_0":6
					},
					"indices":7,
					"material":1
				},
				{
					"attributes":{
						"POSITION":8,
						"NORMAL":9,
						"TEXCOORD_0":10
					},
					"indices":11,
					"material":2
				},
				{
					"attributes":{
						"POSITION":12,
						"NORMAL":13,
						"TEXCOORD_0":14
					},
					"indices":15,
					"material":3
				}
			]
		}
	],
	"textures":[
		{
			"sampler":0,
			"source":0
		},
		{
			"sampler":0,
			"source":1
		},
		{
			"sampler":0,
			"source":2
		},
		{
			"sampler":0,
			"source":0
		},
		{
			"sampler":0,
			"source":1
		},
		{
			"sampler":0,
			"source":3
		},
		{
			"sampler":0,
			"source":1
		}
	],
	"images":[
		{
			"mimeType":"image/jpeg",
			"name":"template-front-xs.jpg",
			"uri":"textures/template-front-xs.jpg"
		},
		{
			"mimeType":"image/jpeg",
			"name":"roughness_map.jpg",
			"uri":"textures/roughness_map.jpg"
		},
		{
			"mimeType":"image/jpeg",
			"name":"pages_color_map.jpg",
			"uri":"textures/pages_color_map.jpg"
		},
		{
			"mimeType":"image/jpeg",
			"name":"template-side-xs.jpg",
			"uri":"textures/template-side-xs.jpg"
		}
	],
	"accessors":[
		{
			"bufferView":0,
			"componentType":5126,
			"count":146,
			"max":[
				0.057266976684331894,
				0.017357543110847473,
				0.08964964002370834
			],
			"min":[
				-0.053050316870212555,
				0.01504912693053484,
				-0.08964964002370834
			],
			"type":"VEC3"
		},
		{
			"bufferView":1,
			"componentType":5126,
			"count":146,
			"type":"VEC3"
		},
		{
			"bufferView":2,
			"componentType":5126,
			"count":146,
			"type":"VEC2"
		},
		{
			"bufferView":3,
			"componentType":5123,
			"count":432,
			"type":"SCALAR"
		},
		{
			"bufferView":4,
			"componentType":5126,
			"count":76,
			"max":[
				0.054860085248947144,
				0.015180333517491817,
				0.08752976357936859
			],
			"min":[
				-0.05303555727005005,
				-0.015360545367002487,
				-0.08752976357936859
			],
			"type":"VEC3"
		},
		{
			"bufferView":5,
			"componentType":5126,
			"count":76,
			"type":"VEC3"
		},
		{
			"bufferView":6,
			"componentType":5126,
			"count":76,
			"type":"VEC2"
		},
		{
			"bufferView":7,
			"componentType":5123,
			"count":246,
			"type":"SCALAR"
		},
		{
			"bufferView":8,
			"componentType":5126,
			"count":145,
			"max":[
				0.057266976684331894,
				-0.015229672193527222,
				0.08964964002370834
			],
			"min":[
				-0.05304931849241257,
				-0.017363103106617928,
				-0.08964964002370834
			],
			"type":"VEC3"
		},
		{
			"bufferView":9,
			"componentType":5126,
			"count":145,
			"type":"VEC3"
		},
		{
			"bufferView":10,
			"componentType":5126,
			"count":145,
			"type":"VEC2"
		},
		{
			"bufferView":11,
			"componentType":5123,
			"count":432,
			"type":"SCALAR"
		},
		{
			"bufferView":12,
			"componentType":5126,
			"count":160,
			"max":[
				-0.05114327743649483,
				0.017236977815628052,
				0.08964964002370834
			],
			"min":[
				-0.05571448802947998,
				-0.01724306121468544,
				-0.08964964002370834
			],
			"type":"VEC3"
		},
		{
			"bufferView":13,
			"componentType":5126,
			"count":160,
			"type":"VEC3"
		},
		{
			"bufferView":14,
			"componentType":5126,
			"count":160,
			"type":"VEC2"
		},
		{
			"bufferView":15,
			"componentType":5123,
			"count":462,
			"type":"SCALAR"
		}
	],
	"bufferViews":[
		{
			"buffer":0,
			"byteLength":1752,
			"byteOffset":0,
			"target":34962
		},
		{
			"buffer":0,
			"byteLength":1752,
			"byteOffset":1752,
			"target":34962
		},
		{
			"buffer":0,
			"byteLength":1168,
			"byteOffset":3504,
			"target":34962
		},
		{
			"buffer":0,
			"byteLength":864,
			"byteOffset":4672,
			"target":34963
		},
		{
			"buffer":0,
			"byteLength":912,
			"byteOffset":5536,
			"target":34962
		},
		{
			"buffer":0,
			"byteLength":912,
			"byteOffset":6448,
			"target":34962
		},
		{
			"buffer":0,
			"byteLength":608,
			"byteOffset":7360,
			"target":34962
		},
		{
			"buffer":0,
			"byteLength":492,
			"byteOffset":7968,
			"target":34963
		},
		{
			"buffer":0,
			"byteLength":1740,
			"byteOffset":8460,
			"target":34962
		},
		{
			"buffer":0,
			"byteLength":1740,
			"byteOffset":10200,
			"target":34962
		},
		{
			"buffer":0,
			"byteLength":1160,
			"byteOffset":11940,
			"target":34962
		},
		{
			"buffer":0,
			"byteLength":864,
			"byteOffset":13100,
			"target":34963
		},
		{
			"buffer":0,
			"byteLength":1920,
			"byteOffset":13964,
			"target":34962
		},
		{
			"buffer":0,
			"byteLength":1920,
			"byteOffset":15884,
			"target":34962
		},
		{
			"buffer":0,
			"byteLength":1280,
			"byteOffset":17804,
			"target":34962
		},
		{
			"buffer":0,
			"byteLength":924,
			"byteOffset":19084,
			"target":34963
		}
	],
	"samplers":[
		{
			"magFilter":9729,
			"minFilter":9987
		}
	],
	"buffers":[
		{
			"byteLength":20008,
			"uri":"Book_XS.bin"
		}
	]
}
