{
	"asset":{
		"generator":"Khronos glTF Blender I/O v4.4.56",
		"version":"2.0"
	},
	"extensionsUsed":[
		"KHR_materials_clearcoat",
		"KHR_materials_specular",
		"KHR_materials_ior"
	],
	"scene":0,
	"scenes":[
		{
			"name":"Scene",
			"nodes":[
				0
			]
		}
	],
	"nodes":[
		{
			"mesh":0,
			"name":"Book_127x203"
		}
	],
	"materials":[
		{
			"doubleSided":true,
			"name":"Front_127x203",
			"pbrMetallicRoughness":{
				"baseColorTexture":{
					"index":0
				},
				"metallicFactor":0,
				"metallicRoughnessTexture":{
					"index":1
				}
			}
		},
		{
			"doubleSided":true,
			"extensions":{
				"KHR_materials_clearcoat":{
					"clearcoatRoughnessFactor":1
				},
				"KHR_materials_specular":{
					"specularFactor":0
				},
				"KHR_materials_ior":{
					"ior":0
				}
			},
			"name":"Pages",
			"pbrMetallicRoughness":{
				"baseColorTexture":{
					"index":2
				},
				"metallicFactor":0,
				"roughnessFactor":0
			}
		},
		{
			"doubleSided":true,
			"name":"Back_127x203",
			"pbrMetallicRoughness":{
				"baseColorTexture":{
					"index":3
				},
				"metallicFactor":0,
				"metallicRoughnessTexture":{
					"index":4
				}
			}
		},
		{
			"doubleSided":true,
			"name":"Side_127x203",
			"pbrMetallicRoughness":{
				"baseColorTexture":{
					"index":5
				},
				"metallicFactor":0,
				"metallicRoughnessTexture":{
					"index":6
				}
			}
		}
	],
	"meshes":[
		{
			"name":"BookMesh",
			"primitives":[
				{
					"attributes":{
						"POSITION":0,
						"NORMAL":1,
						"TEXCOORD_0":2
					},
					"indices":3,
					"material":0
				},
				{
					"attributes":{
						"POSITION":4,
						"NORMAL":5,
						"TEXCOORD_0":6
					},
					"indices":7,
					"material":1
				},
				{
					"attributes":{
						"POSITION":8,
						"NORMAL":9,
						"TEXCOORD_0":10
					},
					"indices":11,
					"material":2
				},
				{
					"attributes":{
						"POSITION":12,
						"NORMAL":13,
						"TEXCOORD_0":14
					},
					"indices":15,
					"material":3
				}
			]
		}
	],
	"textures":[
		{
			"sampler":0,
			"source":0
		},
		{
			"sampler":0,
			"source":1
		},
		{
			"sampler":0,
			"source":2
		},
		{
			"sampler":0,
			"source":0
		},
		{
			"sampler":0,
			"source":1
		},
		{
			"sampler":0,
			"source":3
		},
		{
			"sampler":0,
			"source":1
		}
	],
	"images":[
		{
			"mimeType":"image/jpeg",
			"name":"template-front-sm.jpg",
			"uri":"textures/template-front-sm.jpg"
		},
		{
			"mimeType":"image/jpeg",
			"name":"roughness_map.jpg",
			"uri":"textures/roughness_map.jpg"
		},
		{
			"mimeType":"image/jpeg",
			"name":"pages_color_map.jpg",
			"uri":"textures/pages_color_map.jpg"
		},
		{
			"mimeType":"image/jpeg",
			"name":"template-side-sm.jpg",
			"uri":"textures/template-side-sm.jpg"
		}
	],
	"accessors":[
		{
			"bufferView":0,
			"componentType":5126,
			"count":146,
			"max":[
				0.06635348498821259,
				0.009368423372507095,
				0.10361988097429276
			],
			"min":[
				-0.06265246868133545,
				0.007060006260871887,
				-0.10361988097429276
			],
			"type":"VEC3"
		},
		{
			"bufferView":1,
			"componentType":5126,
			"count":146,
			"type":"VEC3"
		},
		{
			"bufferView":2,
			"componentType":5126,
			"count":146,
			"type":"VEC2"
		},
		{
			"bufferView":3,
			"componentType":5123,
			"count":432,
			"type":"SCALAR"
		},
		{
			"bufferView":4,
			"componentType":5126,
			"count":68,
			"max":[
				0.06394660472869873,
				0.007191212847828865,
				0.101500004529953
			],
			"min":[
				-0.06267816573381424,
				-0.00737015251070261,
				-0.101500004529953
			],
			"type":"VEC3"
		},
		{
			"bufferView":5,
			"componentType":5126,
			"count":68,
			"type":"VEC3"
		},
		{
			"bufferView":6,
			"componentType":5126,
			"count":68,
			"type":"VEC2"
		},
		{
			"bufferView":7,
			"componentType":5123,
			"count":216,
			"type":"SCALAR"
		},
		{
			"bufferView":8,
			"componentType":5126,
			"count":145,
			"max":[
				0.06635348498821259,
				-0.0072392793372273445,
				0.10361988097429276
			],
			"min":[
				-0.06265147030353546,
				-0.00937271025031805,
				-0.10361988097429276
			],
			"type":"VEC3"
		},
		{
			"bufferView":9,
			"componentType":5126,
			"count":145,
			"type":"VEC3"
		},
		{
			"bufferView":10,
			"componentType":5126,
			"count":145,
			"type":"VEC2"
		},
		{
			"bufferView":11,
			"componentType":5123,
			"count":432,
			"type":"SCALAR"
		},
		{
			"bufferView":12,
			"componentType":5126,
			"count":146,
			"max":[
				-0.06074543297290802,
				0.009247858077287674,
				0.10361988097429276
			],
			"min":[
				-0.06535691767930984,
				-0.009252668358385563,
				-0.10361988097429276
			],
			"type":"VEC3"
		},
		{
			"bufferView":13,
			"componentType":5126,
			"count":146,
			"type":"VEC3"
		},
		{
			"bufferView":14,
			"componentType":5126,
			"count":146,
			"type":"VEC2"
		},
		{
			"bufferView":15,
			"componentType":5123,
			"count":420,
			"type":"SCALAR"
		}
	],
	"bufferViews":[
		{
			"buffer":0,
			"byteLength":1752,
			"byteOffset":0,
			"target":34962
		},
		{
			"buffer":0,
			"byteLength":1752,
			"byteOffset":1752,
			"target":34962
		},
		{
			"buffer":0,
			"byteLength":1168,
			"byteOffset":3504,
			"target":34962
		},
		{
			"buffer":0,
			"byteLength":864,
			"byteOffset":4672,
			"target":34963
		},
		{
			"buffer":0,
			"byteLength":816,
			"byteOffset":5536,
			"target":34962
		},
		{
			"buffer":0,
			"byteLength":816,
			"byteOffset":6352,
			"target":34962
		},
		{
			"buffer":0,
			"byteLength":544,
			"byteOffset":7168,
			"target":34962
		},
		{
			"buffer":0,
			"byteLength":432,
			"byteOffset":7712,
			"target":34963
		},
		{
			"buffer":0,
			"byteLength":1740,
			"byteOffset":8144,
			"target":34962
		},
		{
			"buffer":0,
			"byteLength":1740,
			"byteOffset":9884,
			"target":34962
		},
		{
			"buffer":0,
			"byteLength":1160,
			"byteOffset":11624,
			"target":34962
		},
		{
			"buffer":0,
			"byteLength":864,
			"byteOffset":12784,
			"target":34963
		},
		{
			"buffer":0,
			"byteLength":1752,
			"byteOffset":13648,
			"target":34962
		},
		{
			"buffer":0,
			"byteLength":1752,
			"byteOffset":15400,
			"target":34962
		},
		{
			"buffer":0,
			"byteLength":1168,
			"byteOffset":17152,
			"target":34962
		},
		{
			"buffer":0,
			"byteLength":840,
			"byteOffset":18320,
			"target":34963
		}
	],
	"samplers":[
		{
			"magFilter":9729,
			"minFilter":9987
		}
	],
	"buffers":[
		{
			"byteLength":19160,
			"uri":"Book_SM.bin"
		}
	]
}
