{
  "asset": {
    "generator": "Khronos glTF Blender I/O v4.4.56",
    "version": "2.0"
  },
  "extensionsUsed": [
    "KHR_materials_clearcoat",
    "KHR_materials_specular",
    "KHR_materials_ior"
  ],
  "scene": 0,
  "scenes": [
    {
      "name": "Scene",
      "nodes": [0]
    }
  ],
  "nodes": [
    {
      "mesh": 0,
      "name": "Book_140x216"
    }
  ],
  "materials": [
    {
      "doubleSided": true,
      "name": "Front_140x216",
      "pbrMetallicRoughness": {
        "baseColorTexture": {
          "index": 0
        },
        "metallicFactor": 0,
        "metallicRoughnessTexture": {
          "index": 1
        }
      }
    },
    {
      "doubleSided": true,
      "extensions": {
        "KHR_materials_clearcoat": {
          "clearcoatRoughnessFactor": 1
        },
        "KHR_materials_specular": {
          "specularFactor": 0
        },
        "KHR_materials_ior": {
          "ior": 0
        }
      },
      "name": "Pages",
      "pbrMetallicRoughness": {
        "baseColorTexture": {
          "index": 2
        },
        "metallicFactor": 0,
        "roughnessFactor": 0
      }
    },
    {
      "doubleSided": true,
      "name": "Back_140x216",
      "pbrMetallicRoughness": {
        "baseColorTexture": {
          "index": 3
        },
        "metallicFactor": 0,
        "metallicRoughnessTexture": {
          "index": 4
        }
      }
    },
    {
      "doubleSided": true,
      "name": "Side_140x216",
      "pbrMetallicRoughness": {
        "baseColorTexture": {
          "index": 5
        },
        "metallicFactor": 0,
        "metallicRoughnessTexture": {
          "index": 6
        }
      }
    }
  ],
  "meshes": [
    {
      "name": "BookMesh.003",
      "primitives": [
        {
          "attributes": {
            "POSITION": 0,
            "NORMAL": 1,
            "TEXCOORD_0": 2
          },
          "indices": 3,
          "material": 0
        },
        {
          "attributes": {
            "POSITION": 4,
            "NORMAL": 5,
            "TEXCOORD_0": 6
          },
          "indices": 7,
          "material": 1
        },
        {
          "attributes": {
            "POSITION": 8,
            "NORMAL": 9,
            "TEXCOORD_0": 10
          },
          "indices": 11,
          "material": 2
        },
        {
          "attributes": {
            "POSITION": 12,
            "NORMAL": 13,
            "TEXCOORD_0": 14
          },
          "indices": 15,
          "material": 3
        }
      ]
    }
  ],
  "textures": [
    {
      "sampler": 0,
      "source": 0
    },
    {
      "sampler": 0,
      "source": 1
    },
    {
      "sampler": 0,
      "source": 2
    },
    {
      "sampler": 0,
      "source": 0
    },
    {
      "sampler": 0,
      "source": 1
    },
    {
      "sampler": 0,
      "source": 3
    },
    {
      "sampler": 0,
      "source": 1
    }
  ],
  "images": [
    {
      "mimeType": "image/jpeg",
      "name": "template-front-lg.jpg",
      "uri": "textures/template-front-lg.jpg"
    },
    {
      "mimeType": "image/jpeg",
      "name": "roughness_map.jpg",
      "uri": "textures/roughness_map.jpg"
    },
    {
      "mimeType": "image/jpeg",
      "name": "pages_color_map.jpg",
      "uri": "textures/pages_color_map.jpg"
    },
    {
      "mimeType": "image/jpeg",
      "name": "template-side-lg.jpg",
      "uri": "textures/template-side-lg.jpg"
    }
  ],
  "accessors": [
    {
      "bufferView": 0,
      "componentType": 5126,
      "count": 146,
      "max": [0.07324707508087158, 0.014862817712128162, 0.11021298915147781],
      "min": [-0.06917683780193329, 0.012554400600492954, -0.11021298915147781],
      "type": "VEC3"
    },
    {
      "bufferView": 1,
      "componentType": 5126,
      "count": 146,
      "type": "VEC3"
    },
    {
      "bufferView": 2,
      "componentType": 5126,
      "count": 146,
      "type": "VEC2"
    },
    {
      "bufferView": 3,
      "componentType": 5123,
      "count": 432,
      "type": "SCALAR"
    },
    {
      "bufferView": 4,
      "componentType": 5126,
      "count": 68,
      "max": [0.07084019482135773, 0.012685607187449932, 0.10809311270713806],
      "min": [
        -0.06931069493293762, -0.012864649295806885, -0.10809311270713806
      ],
      "type": "VEC3"
    },
    {
      "bufferView": 5,
      "componentType": 5126,
      "count": 68,
      "type": "VEC3"
    },
    {
      "bufferView": 6,
      "componentType": 5126,
      "count": 68,
      "type": "VEC2"
    },
    {
      "bufferView": 7,
      "componentType": 5123,
      "count": 216,
      "type": "SCALAR"
    },
    {
      "bufferView": 8,
      "componentType": 5126,
      "count": 145,
      "max": [0.07324707508087158, -0.01273377612233162, 0.11021298915147781],
      "min": [-0.0691758394241333, -0.014867207035422325, -0.11021298915147781],
      "type": "VEC3"
    },
    {
      "bufferView": 9,
      "componentType": 5126,
      "count": 145,
      "type": "VEC3"
    },
    {
      "bufferView": 10,
      "componentType": 5126,
      "count": 145,
      "type": "VEC2"
    },
    {
      "bufferView": 11,
      "componentType": 5123,
      "count": 432,
      "type": "SCALAR"
    },
    {
      "bufferView": 12,
      "componentType": 5126,
      "count": 146,
      "max": [-0.06726980209350586, 0.014742252416908741, 0.11021298915147781],
      "min": [
        -0.07198895514011383, -0.014747165143489838, -0.11021298915147781
      ],
      "type": "VEC3"
    },
    {
      "bufferView": 13,
      "componentType": 5126,
      "count": 146,
      "type": "VEC3"
    },
    {
      "bufferView": 14,
      "componentType": 5126,
      "count": 146,
      "type": "VEC2"
    },
    {
      "bufferView": 15,
      "componentType": 5123,
      "count": 420,
      "type": "SCALAR"
    }
  ],
  "bufferViews": [
    {
      "buffer": 0,
      "byteLength": 1752,
      "byteOffset": 0,
      "target": 34962
    },
    {
      "buffer": 0,
      "byteLength": 1752,
      "byteOffset": 1752,
      "target": 34962
    },
    {
      "buffer": 0,
      "byteLength": 1168,
      "byteOffset": 3504,
      "target": 34962
    },
    {
      "buffer": 0,
      "byteLength": 864,
      "byteOffset": 4672,
      "target": 34963
    },
    {
      "buffer": 0,
      "byteLength": 816,
      "byteOffset": 5536,
      "target": 34962
    },
    {
      "buffer": 0,
      "byteLength": 816,
      "byteOffset": 6352,
      "target": 34962
    },
    {
      "buffer": 0,
      "byteLength": 544,
      "byteOffset": 7168,
      "target": 34962
    },
    {
      "buffer": 0,
      "byteLength": 432,
      "byteOffset": 7712,
      "target": 34963
    },
    {
      "buffer": 0,
      "byteLength": 1740,
      "byteOffset": 8144,
      "target": 34962
    },
    {
      "buffer": 0,
      "byteLength": 1740,
      "byteOffset": 9884,
      "target": 34962
    },
    {
      "buffer": 0,
      "byteLength": 1160,
      "byteOffset": 11624,
      "target": 34962
    },
    {
      "buffer": 0,
      "byteLength": 864,
      "byteOffset": 12784,
      "target": 34963
    },
    {
      "buffer": 0,
      "byteLength": 1752,
      "byteOffset": 13648,
      "target": 34962
    },
    {
      "buffer": 0,
      "byteLength": 1752,
      "byteOffset": 15400,
      "target": 34962
    },
    {
      "buffer": 0,
      "byteLength": 1168,
      "byteOffset": 17152,
      "target": 34962
    },
    {
      "buffer": 0,
      "byteLength": 840,
      "byteOffset": 18320,
      "target": 34963
    }
  ],
  "samplers": [
    {
      "magFilter": 9729,
      "minFilter": 9987
    }
  ],
  "buffers": [
    {
      "byteLength": 19160,
      "uri": "Book_LG.bin"
    }
  ]
}
